<svg width="42" height="42" viewBox="0 0 42 42" fill="none" xmlns="http://www.w3.org/2000/svg">
<rect opacity="0.1" x="0.307739" y="0.830078" width="41.1699" height="41.1699" rx="20.585" fill="#32A071"/>
<g clip-path="url(#clip0_97_2789)">
<path d="M14.2 19.0001H16.1384V27.0001H14.2C14.0286 27.0001 13.8643 26.9298 13.7431 26.8048C13.6219 26.6798 13.5538 26.5102 13.5538 26.3334V19.6667C13.5538 19.4899 13.6219 19.3204 13.7431 19.1953C13.8643 19.0703 14.0286 19.0001 14.2 19.0001ZM17.6201 18.1381L21.7555 13.8714C21.8104 13.8145 21.8834 13.7801 21.9611 13.7743C22.0387 13.7685 22.1158 13.7919 22.178 13.8401L22.7292 14.2667C22.8823 14.3853 22.9979 14.548 23.0615 14.7342C23.1251 14.9205 23.1338 15.122 23.0865 15.3134L22.3415 18.3334H26.4769C26.8197 18.3334 27.1484 18.4739 27.3907 18.7239C27.6331 18.974 27.7692 19.3131 27.7692 19.6667V21.0694C27.7694 21.2436 27.7365 21.4162 27.6723 21.5774L25.6724 26.5874C25.6237 26.7096 25.5408 26.814 25.4344 26.8875C25.328 26.9609 25.2028 27.0001 25.0748 27.0001H18.0769C17.9055 27.0001 17.7412 26.9298 17.62 26.8048C17.4988 26.6798 17.4308 26.5102 17.4308 26.3334V18.6094C17.4308 18.4326 17.4989 18.2631 17.6201 18.1381Z" fill="#32A071"/>
</g>
<defs>
<clipPath id="clip0_97_2789">
<rect width="15.5077" height="16" fill="white" transform="translate(12.9077 13)"/>
</clipPath>
</defs>
</svg>
