<svg width="20" height="16" viewBox="0 0 20 16" fill="none" xmlns="http://www.w3.org/2000/svg">
<path d="M15 13.7994H2V4.79944H4.595C4.595 4.79944 5.284 3.90344 6.765 2.79944H1C0.734784 2.79944 0.48043 2.9048 0.292893 3.09233C0.105357 3.27987 0 3.53422 0 3.79944L0 14.7994C0 15.0647 0.105357 15.319 0.292893 15.5065C0.48043 15.6941 0.734784 15.7994 1 15.7994H16C16.2652 15.7994 16.5196 15.6941 16.7071 15.5065C16.8946 15.319 17 15.0647 17 14.7994V11.0534L15 12.6984V13.7994ZM13.361 6.84944V10.4004L20 5.19944L13.361 0.200439V3.33144C5.3 3.33144 5.3 11.2994 5.3 11.2994C7.582 7.55144 8.986 6.84944 13.361 6.84944Z" fill="#C72020"/>
</svg>
