<svg width="34" height="26" viewBox="0 0 34 26" fill="none" xmlns="http://www.w3.org/2000/svg">
<path fill-rule="evenodd" clip-rule="evenodd" d="M2.73213 24.5664V14.1251C2.17652 14.3387 1.65688 14.3437 1.22523 14.1965C0.88821 14.0825 0.603486 13.8786 0.394855 13.6151C0.185947 13.3517 0.0531308 13.031 0.012456 12.6774C-0.0492479 12.1295 0.114835 11.5097 0.58218 10.9284C0.6057 10.9002 0.631986 10.8717 0.662976 10.8476L14.203 0.278509C14.3787 0.117194 14.6493 0.100592 14.8438 0.252223L23.4232 6.92206C22.0731 7.44668 20.9185 8.34596 20.2292 9.62154C17.7602 7.64065 15.1471 5.57869 14.6302 5.17637C13.5411 6.0048 4.06057 13.3041 4.06057 13.6124V24.5711L2.73213 24.5664ZM17.8446 25.0221V23.0318C19.2251 22.4172 23.4528 21.2485 23.6512 19.5589C23.6957 19.1776 22.7962 17.7233 22.59 17.0266C22.1481 16.3232 21.9904 15.2056 22.473 14.4624C22.6647 14.1669 22.5831 13.0897 22.5831 12.6832C22.5831 8.63732 29.673 8.63594 29.673 12.6832C29.673 13.1948 29.5545 14.1348 29.8332 14.5371C30.2989 15.2106 30.0581 16.4029 29.6663 17.0263C29.4151 17.7587 28.4594 19.1444 28.541 19.5586C28.8448 21.1024 32.7656 22.1394 34 22.6881V25.0207L17.8446 25.0221ZM15.0314 13.3636V17.6325H18.8615V17.6209C18.8615 16.4438 18.3798 15.3736 17.6039 14.5974C16.9274 13.9209 16.0278 13.4679 15.0314 13.3636ZM15.0314 18.5343V21.7609C14.7758 22.1627 14.6175 22.6328 14.5893 23.138H9.39755V17.6184C9.39755 16.1923 9.98111 14.8963 10.9188 13.9588C11.8585 13.0216 13.1543 12.4381 14.5804 12.4381C16.0068 12.4381 17.3026 13.0216 18.2398 13.9588C18.5948 14.3141 18.8989 14.7203 19.1396 15.1647C19.1291 15.3525 19.1282 15.5399 19.1365 15.7258C19.1744 16.5562 19.4038 17.3957 19.7608 18.1068V19.6735C19.4896 19.7227 19.1797 19.7736 18.8615 19.8356V18.534L15.0314 18.5343ZM14.1294 22.2388V18.5343H10.2996V22.241H14.1294V22.2388ZM14.1294 17.6323V13.3636C13.1305 13.4702 12.2334 13.9212 11.5575 14.5974C10.7813 15.3736 10.2999 16.4438 10.2999 17.6209V17.6325L14.1294 17.6323ZM8.44625 24.1206H14.5846V25.0224H8.44625V24.1206ZM22.2502 0.99018L26.3246 1.15648V6.40962L26.1387 6.40685V6.41847L25.9622 6.42068L22.2502 3.97079V0.99018Z" fill="#2F2F2F"/>
</svg>
