<svg width="25" height="18" viewBox="0 0 25 18" fill="none" xmlns="http://www.w3.org/2000/svg">
<path d="M18.8131 13L23.8828 9M23.8828 9L18.8131 5M23.8828 9H6.13885M13.7434 13V14C13.7434 14.7956 13.3428 15.5587 12.6297 16.1213C11.9167 16.6839 10.9495 17 9.94112 17H4.87143C3.863 17 2.89588 16.6839 2.18281 16.1213C1.46975 15.5587 1.06915 14.7956 1.06915 14V4C1.06915 3.20435 1.46975 2.44129 2.18281 1.87868C2.89588 1.31607 3.863 1 4.87143 1H9.94112C10.9495 1 11.9167 1.31607 12.6297 1.87868C13.3428 2.44129 13.7434 3.20435 13.7434 4V5" stroke="white" stroke-width="2" stroke-linecap="round" stroke-linejoin="round"/>
</svg>
