<svg width="29" height="29" viewBox="0 0 29 29" fill="none" xmlns="http://www.w3.org/2000/svg">
<path fill-rule="evenodd" clip-rule="evenodd" d="M22.0458 10.6263C22.0458 12.1439 22.437 13.0384 23.2978 14.0692C23.9502 14.8286 24.1586 15.8034 24.1586 16.8609C24.1586 17.9173 23.8202 18.9201 23.1421 19.7342C22.2543 20.7103 21.0023 21.3334 19.7246 21.4417C17.8729 21.6035 16.0202 21.7398 14.1428 21.7398C12.2642 21.7398 10.4126 21.6583 8.56096 21.4417C7.28204 21.3334 6.03006 20.7103 5.14348 19.7342C4.46537 18.9201 4.12573 17.9173 4.12573 16.8609C4.12573 15.8034 4.33537 14.8286 4.98654 14.0692C5.87429 13.0384 6.2397 12.1439 6.2397 10.6263V10.1115C6.2397 8.07914 6.73393 6.75019 7.75168 5.44923C9.26483 3.55195 11.6903 2.41406 14.0901 2.41406H14.1955C16.6467 2.41406 19.1507 3.60671 20.6381 5.58553C21.6031 6.85972 22.0458 8.13269 22.0458 10.1115V10.6263ZM10.6933 24.2351C10.6933 23.6266 11.2379 23.3479 11.7415 23.2287C12.3306 23.1009 15.9203 23.1009 16.5094 23.2287C17.013 23.3479 17.5575 23.6266 17.5575 24.2351C17.5283 24.8144 17.1968 25.328 16.7389 25.6541C16.1451 26.1287 15.4483 26.4293 14.7198 26.5376C14.3169 26.5912 13.9211 26.5924 13.5322 26.5376C12.8026 26.4293 12.1057 26.1287 11.5131 25.6529C11.054 25.328 10.7226 24.8144 10.6933 24.2351Z" fill="#030229"/>
<circle cx="20.5" cy="4.5" r="2.5" fill="#F62C72"/>
</svg>
