<svg width="42" height="42" viewBox="0 0 42 42" fill="none" xmlns="http://www.w3.org/2000/svg">
<rect opacity="0.1" x="0.538452" y="0.830078" width="41.1699" height="41.1699" rx="20.585" fill="#FF8300"/>
<g clip-path="url(#clip0_97_2783)">
<path d="M16.7802 17.4238L20.8923 13.1812L25.0044 17.4238C25.8177 18.2629 26.3716 19.332 26.5959 20.4959C26.8203 21.6598 26.7052 22.8662 26.265 23.9626C25.8248 25.0589 25.0795 25.996 24.1231 26.6553C23.1668 27.3145 22.0425 27.6664 20.8923 27.6664C19.7421 27.6664 18.6178 27.3145 17.6614 26.6553C16.7051 25.996 15.9597 25.0589 15.5196 23.9626C15.0794 22.8662 14.9643 21.6598 15.1886 20.4959C15.413 19.332 15.9669 18.2629 16.7802 17.4238ZM20.8923 15.0672L17.6938 18.3665C17.2732 18.7994 16.9396 19.3138 16.7123 19.8801C16.485 20.4464 16.3684 21.0535 16.3692 21.6665H25.4154C25.4162 21.0535 25.2996 20.4464 25.0723 19.8801C24.8449 19.3138 24.5114 18.7994 24.0908 18.3665L20.8923 15.0665V15.0672Z" fill="#F28300"/>
</g>
<defs>
<clipPath id="clip0_97_2783">
<rect width="15.5077" height="16" fill="white" transform="translate(13.1384 13)"/>
</clipPath>
</defs>
</svg>
