<svg width="20" height="20" viewBox="0 0 20 20" fill="none" xmlns="http://www.w3.org/2000/svg">
<path fill-rule="evenodd" clip-rule="evenodd" d="M3.75749 2.05078H18.943C19.9359 2.05078 19.8822 2.4528 19.7959 3.47819L19.2311 10.6771C19.1351 11.8245 19.2165 11.5462 18.0007 11.7204L6.83203 13.1413L7.42285 14.8551C12.2682 14.8551 14.6104 14.8551 19.4525 14.8551C19.6152 15.4639 19.8366 16.4551 19.9993 17.1338H18.0007L17.8086 16.4404C13.7721 16.4404 12.234 16.4404 8.19596 16.4404C5.99056 16.403 6.21191 17.0003 5.68294 15.0944L1.89388 1.31999H0.0742188V0H3.26595C3.41406 0.555013 3.61914 1.48926 3.75749 2.05078ZM10.4079 3.86719H13.2985V6.80013H15.8994L11.8564 10.734L7.80697 6.80013H10.4079V3.86719ZM8.81283 16.9141C9.66406 16.9141 10.3558 17.6058 10.3558 18.457C10.3558 19.3099 9.66569 20 8.81283 20C7.95996 20 7.26986 19.3099 7.26986 18.457C7.26986 17.6058 7.95996 16.9141 8.81283 16.9141ZM15.1768 16.9141C16.028 16.9141 16.7197 17.6058 16.7197 18.457C16.7197 19.3099 16.028 20 15.1768 20C14.3239 20 13.6338 19.3099 13.6338 18.457C13.6338 17.6058 14.3239 16.9141 15.1768 16.9141Z" fill="white"/>
</svg>
