<svg width="28" height="27" viewBox="0 0 28 27" fill="none" xmlns="http://www.w3.org/2000/svg">
<path d="M8.81792 11.0852C8.81795 11.0892 8.81798 11.0932 8.81802 11.0973L8.8181 11.1047V11.1122C8.8181 11.5662 8.88064 11.985 8.99925 12.3735L9.00235 12.3837L9.00532 12.3939C9.06469 12.5987 9.13136 12.7894 9.20689 12.9696L9.59157 12.8132M8.81792 11.0852L11.8308 15.6354L11.8213 15.6295L10.9365 15.0744C10.7217 14.9397 10.5347 14.7923 10.3707 14.6306L9.68763 15.3235L10.3707 14.6305C10.3365 14.5969 10.3032 14.5636 10.2708 14.5307C10.2701 14.53 10.2694 14.5293 10.2687 14.5286C9.94772 14.2031 9.71252 13.9168 9.55615 13.6393L9.5402 13.611L9.52304 13.5834C9.40499 13.3937 9.30215 13.195 9.21189 12.9814L9.59157 12.8132M8.81792 11.0852H9.23549M8.81792 11.0852L17.9733 12.8115C17.7354 13.3435 17.4013 13.8284 16.9872 14.2425C16.567 14.65 16.0751 14.9788 15.5355 15.2128C14.4036 15.6713 13.1339 15.6713 12.002 15.2128C11.4624 14.9788 10.9705 14.65 10.5503 14.2425C10.1357 13.8344 9.80949 13.3493 9.59157 12.8132M9.59157 12.8132C9.35023 12.2685 9.22886 11.6795 9.23549 11.0852M9.23549 11.0852C9.23549 10.4929 9.34505 9.89888 9.59157 9.35888C9.8381 8.81888 10.1668 8.33456 10.5777 7.92956C10.9885 7.52456 11.4816 7.20225 12.0294 6.95925C12.5772 6.71625 13.1798 6.60825 13.7824 6.60825C14.4124 6.60825 14.9877 6.71625 15.5355 6.95925C16.0833 7.20225 16.5764 7.52625 16.9872 7.92956C17.3981 8.33456 17.7268 8.82056 17.9733 9.35888L8.81789 11.0805L9.23549 11.0852Z" fill="#0D1740" stroke="#0D1740" stroke-width="3"/>
</svg>
