<svg width="42" height="42" viewBox="0 0 42 42" fill="none" xmlns="http://www.w3.org/2000/svg">
<rect opacity="0.1" x="0.0771484" y="0.830078" width="41.1699" height="41.1699" rx="20.585" fill="#F91313"/>
<path d="M26.8927 23H24.9543V15H26.8927C27.0641 15 27.2284 15.0702 27.3496 15.1953C27.4708 15.3203 27.5389 15.4899 27.5389 15.6667V22.3333C27.5389 22.5101 27.4708 22.6797 27.3496 22.8047C27.2284 22.9298 27.0641 23 26.8927 23ZM23.4726 23.862L19.3372 28.1287C19.2823 28.1855 19.2093 28.22 19.1316 28.2258C19.054 28.2315 18.9769 28.2082 18.9147 28.16L18.3635 27.7333C18.2104 27.6148 18.0948 27.4521 18.0312 27.2658C17.9676 27.0796 17.9589 26.878 18.0062 26.6867L18.7512 23.6667H14.6158C14.2731 23.6667 13.9443 23.5262 13.702 23.2761C13.4596 23.0261 13.3235 22.687 13.3235 22.3333V20.9307C13.3233 20.7564 13.3562 20.5838 13.4204 20.4227L15.4209 15.4133C15.4695 15.2912 15.5523 15.1867 15.6586 15.1131C15.7649 15.0395 15.8899 15.0001 16.0179 15H23.0158C23.1872 15 23.3515 15.0702 23.4727 15.1953C23.5939 15.3203 23.6619 15.4899 23.6619 15.6667V23.3907C23.6619 23.5675 23.5938 23.737 23.4726 23.862Z" fill="#F91313"/>
</svg>
