<svg width="33" height="24" viewBox="0 0 33 24" fill="none" xmlns="http://www.w3.org/2000/svg">
<path fill-rule="evenodd" clip-rule="evenodd" d="M2.57916 23.9954V14.1628C2.05468 14.364 1.56429 14.3686 1.15663 14.2301C0.838391 14.1227 0.569567 13.9303 0.372716 13.6825C0.175328 13.4345 0.049913 13.1325 0.0117782 12.7998C-0.0464983 12.2836 0.108189 11.7004 0.549425 11.1528C0.571715 11.1263 0.596422 11.0993 0.625695 11.0768L13.4084 1.12334C13.5741 0.971447 13.8297 0.955909 14.0132 1.09869L21.7731 7.11629C20.5331 7.65153 19.4831 8.52137 18.8552 9.72821C16.5983 7.92451 14.2828 6.10152 13.8117 5.73585C12.7834 6.51595 3.83385 13.3897 3.83385 13.6798V23.9997L2.57916 23.9954ZM22.1877 20.2975C22.9853 22.6389 26.3175 22.7243 27.0655 20.2975C27.9474 21.0886 30.5562 21.248 31.5278 21.7878C31.8347 21.9592 32.1127 22.1767 32.3348 22.4704C32.5518 22.7557 32.8732 23.3908 33 24H16.2534C16.3802 23.3908 16.7017 22.7557 16.9187 22.4704C17.1421 22.1767 17.4187 21.9592 17.7257 21.7878C18.6973 21.248 21.306 21.0886 22.1877 20.2975ZM21.5773 15.4466C21.4097 15.4535 21.2843 15.4876 21.197 15.546C21.1479 15.5786 21.1111 15.6207 21.0882 15.6711C21.0622 15.727 21.0498 15.7948 21.0525 15.8722C21.0592 16.101 21.1793 16.4 21.4124 16.7453L21.4151 16.7509L22.1689 17.9473C22.4716 18.4274 22.7893 18.9165 23.183 19.2755C23.5616 19.6211 24.0211 19.8549 24.6289 19.856C25.2874 19.8574 25.7684 19.6144 26.1594 19.2498C26.5657 18.8702 26.8874 18.3497 27.2022 17.8302L28.0516 16.4337C28.2095 16.0734 28.2681 15.8318 28.2313 15.6903C28.2095 15.606 28.1169 15.5652 27.9571 15.5572C27.9232 15.5556 27.8891 15.5543 27.8537 15.5556C27.8153 15.5572 27.7758 15.5599 27.735 15.5626C27.7119 15.5639 27.6904 15.5626 27.6697 15.5583C27.5948 15.5626 27.5158 15.5569 27.4366 15.546L27.7283 14.2612C25.5694 14.6014 23.9545 13.001 21.6713 13.9418L21.8362 15.4562C21.7449 15.4616 21.6578 15.4592 21.5773 15.4466ZM28.2487 15.176C28.4569 15.2398 28.5919 15.3718 28.6465 15.5867C28.708 15.8235 28.6408 16.1578 28.4394 16.6146C28.4354 16.6226 28.4313 16.6312 28.427 16.6389L27.5671 18.0515C27.236 18.5951 26.8995 19.1418 26.451 19.5605C25.9864 19.9943 25.4139 20.2841 24.6299 20.2812C23.8981 20.2798 23.3479 20.0009 22.8964 19.5892C22.4606 19.1911 22.1267 18.6768 21.8088 18.1737L21.0539 16.9773C20.7786 16.5669 20.6338 16.1916 20.6258 15.8843C20.6215 15.7388 20.6459 15.6084 20.6991 15.4929C20.755 15.3718 20.8422 15.2714 20.9583 15.1923C21.0125 15.1556 21.074 15.1243 21.1409 15.0999C21.0917 14.4514 21.074 13.6327 21.1054 12.949C21.1221 12.7872 21.1532 12.6241 21.1981 12.4626C21.3904 11.776 21.8743 11.2228 22.4724 10.8421C22.8024 10.6326 23.1634 10.4737 23.541 10.3677C23.7797 10.2999 23.3366 9.53559 23.5847 9.51122C24.7828 9.38906 26.7196 10.4794 27.5564 11.3822C27.9748 11.8349 28.2377 12.4328 28.2949 13.2255L28.2487 15.176ZM15.7193 15.5111C15.5598 15.5977 15.3608 15.539 15.2748 15.3809C15.1881 15.2215 15.2469 15.023 15.4064 14.9378C16.1605 14.5296 16.5118 14.0018 16.5824 13.4854C16.6203 13.21 16.5771 12.933 16.4734 12.6766C16.367 12.417 16.1992 12.181 15.9862 11.9908C15.5716 11.6214 14.9899 11.4266 14.3824 11.5774C14.1362 11.6385 13.9232 11.7612 13.7366 11.9345C13.5384 12.1183 13.3673 12.3586 13.2172 12.6426C13.1326 12.803 12.9344 12.8638 12.7751 12.7805C12.6143 12.6964 12.5533 12.4984 12.6368 12.3396C12.821 11.9911 13.0364 11.6921 13.2913 11.4548C13.5582 11.208 13.8676 11.0307 14.2275 10.9417C15.0629 10.7355 15.8589 10.9985 16.4242 11.5027C16.7116 11.7591 16.9393 12.0787 17.0833 12.4312C17.2278 12.787 17.2868 13.1781 17.2323 13.5743C17.1343 14.2815 16.6799 14.9909 15.7193 15.5111ZM13.2064 18.0938C11.9644 16.4289 11.934 14.8519 13.4422 13.3862L12.3562 12.7878C11.4863 12.4505 9.89057 14.9387 10.5072 15.6036L11.3534 16.8557L11.1788 17.2189C11.1308 17.3266 11.1778 17.4024 11.2957 17.4549L11.4103 17.4857L9.20925 21.8312L9.65478 22.779L10.5461 22.517L10.7755 22.0728L10.5561 21.6624L11.04 21.5587L11.1528 21.3409L10.8998 20.956L11.066 20.6345L11.5492 20.5734L11.7063 20.2691L11.4364 19.9174L11.6091 19.5841L12.1013 19.504L12.7722 18.2273L12.8858 18.2891C13.0821 18.4089 13.1839 18.3317 13.2064 18.0938ZM15.5447 19.1373L15.2168 20.3578L14.7616 20.5373L14.6663 20.8928L14.9982 21.1738L14.9117 21.4976L14.4619 21.656L14.3698 21.9975L14.6921 22.3128L14.63 22.5448L14.1877 22.7444L14.4834 23.0919L14.3558 23.5652L13.558 24L12.9344 23.1848L14.1233 18.7585L13.8354 18.6813C13.7766 18.6655 13.74 18.6047 13.7562 18.5444L13.877 18.0949C13.0053 17.4354 12.5734 16.2944 12.8734 15.176C13.2591 13.739 14.7138 12.8711 16.1554 13.1942C16.1619 13.271 16.1608 13.349 16.1501 13.427C16.1229 13.6214 16.0383 13.8213 15.882 14.0144C15.8608 14.0404 15.8383 14.0667 15.8149 14.0927C15.3543 14.0629 14.9228 14.3595 14.7984 14.8213C14.7447 15.0201 14.7565 15.2207 14.8196 15.4016C14.8349 15.4656 14.8594 15.5277 14.8919 15.5883C14.9676 15.7276 15.0793 15.8329 15.2098 15.9004C15.2955 15.9572 15.3919 15.9995 15.4959 16.0287C16.0131 16.1664 16.5432 15.8696 16.6974 15.3622C16.8539 15.2242 16.9898 15.0788 17.1066 14.9293C17.3336 14.6375 17.4888 14.3279 17.5812 14.0128C18.2066 14.6858 18.4819 15.655 18.226 16.6081C17.926 17.7266 16.978 18.5002 15.8939 18.6358L15.773 19.0856C15.7572 19.1445 15.6957 19.1807 15.6358 19.1649L15.5447 19.1373ZM21.0053 1.79387L24.8515 1.95031V6.51273L24.6834 6.51059V6.52157C24.4473 6.52184 24.2102 6.53309 23.9741 6.55506L21.0053 4.60054V1.79387Z" fill="#2F2F2F"/>
</svg>
