<svg width="23" height="24" viewBox="0 0 23 24" fill="none" xmlns="http://www.w3.org/2000/svg">
<circle cx="11.5" cy="12.21" r="11.5" fill="white"/>
<path fill-rule="evenodd" clip-rule="evenodd" d="M11.5 20.71C16.1946 20.71 20 16.9045 20 12.21C20 7.51541 16.1946 3.70996 11.5 3.70996C6.80545 3.70996 3 7.51541 3 12.21C3 16.9045 6.80545 20.71 11.5 20.71ZM16.0654 9.51971C16.1051 9.47875 16.1362 9.43019 16.1568 9.37694C16.1774 9.32369 16.187 9.26684 16.1852 9.20978C16.1833 9.15272 16.17 9.09662 16.1459 9.04483C16.1219 8.99304 16.0877 8.94662 16.0453 8.90835C16.003 8.87007 15.9533 8.84073 15.8994 8.82206C15.8454 8.80339 15.7883 8.79578 15.7313 8.79969C15.6744 8.80359 15.6188 8.81893 15.5679 8.8448C15.517 8.87066 15.4718 8.90651 15.4351 8.95021L10.344 14.5759L7.54325 11.9023C7.46176 11.8244 7.35266 11.7821 7.23996 11.7846C7.12726 11.7872 7.02019 11.8344 6.9423 11.9159C6.86441 11.9974 6.82209 12.1065 6.82464 12.2192C6.82719 12.3319 6.87441 12.4389 6.9559 12.5168L10.0729 15.4918L10.3886 15.7936L10.6814 15.4697L16.0654 9.51971Z" fill="#80131B"/>
</svg>
