<svg width="21" height="20" viewBox="0 0 21 20" fill="none" xmlns="http://www.w3.org/2000/svg">
<path d="M10.3248 14.1421C9.45127 14.1421 8.59739 13.9109 7.8711 13.4777C7.14481 13.0445 6.57874 12.4288 6.24447 11.7085C5.91019 10.9881 5.82273 10.1955 5.99314 9.43074C6.16355 8.66602 6.58418 7.96357 7.20184 7.41223C7.8195 6.8609 8.60644 6.48543 9.46316 6.33332C10.3199 6.18121 11.2079 6.25928 12.0149 6.55766C12.8219 6.85604 13.5117 7.36133 13.9969 8.00963C14.4822 8.65794 14.7413 9.42013 14.7413 10.1998C14.7476 10.7191 14.6376 11.2343 14.4179 11.7151C14.1982 12.196 13.8731 12.6328 13.4618 13C13.0504 13.3672 12.561 13.6574 12.0223 13.8535C11.4836 14.0496 10.9065 14.1477 10.3248 14.1421ZM10.3248 7.57166C9.93569 7.56376 9.54886 7.62633 9.18763 7.75561C8.82641 7.88489 8.49829 8.07819 8.2231 8.32384C7.94791 8.56948 7.73136 8.86237 7.58653 9.1848C7.44169 9.50724 7.37159 9.85254 7.38044 10.1998C7.37159 10.5471 7.44169 10.8924 7.58653 11.2149C7.73136 11.5373 7.94791 11.8302 8.2231 12.0758C8.49829 12.3215 8.82641 12.5148 9.18763 12.6441C9.54886 12.7733 9.93569 12.8359 10.3248 12.828C10.7138 12.8359 11.1007 12.7733 11.4619 12.6441C11.8231 12.5148 12.1512 12.3215 12.4264 12.0758C12.7016 11.8302 12.9182 11.5373 13.063 11.2149C13.2078 10.8924 13.2779 10.5471 13.2691 10.1998C13.2779 9.85254 13.2078 9.50724 13.063 9.1848C12.9182 8.86237 12.7016 8.56948 12.4264 8.32384C12.1512 8.07819 11.8231 7.88489 11.4619 7.75561C11.1007 7.62633 10.7138 7.56376 10.3248 7.57166Z" fill="white"/>
<path d="M20.1158 6.94232L18.3786 4.25632C18.2086 3.99296 17.9414 3.79044 17.6227 3.68332C17.3041 3.57619 16.9536 3.5711 16.6312 3.66892L14.8396 4.20967C14.5308 4.02411 14.2081 3.85771 13.8738 3.71163L13.5036 2.05653C13.4368 1.75852 13.2565 1.49037 12.9931 1.29773C12.7298 1.1051 12.3998 0.99988 12.0594 1H8.58508C8.24462 0.99988 7.91464 1.1051 7.65132 1.29773C7.388 1.49037 7.20762 1.75852 7.14089 2.05653L6.77064 3.71163C6.43257 3.8561 6.10619 4.02142 5.79386 4.20638L4.01254 3.66892C3.69031 3.57144 3.34019 3.57671 3.02183 3.68382C2.70346 3.79092 2.43655 3.99325 2.26656 4.25632L0.529404 6.94232C0.35923 7.20533 0.296376 7.51284 0.35153 7.81254C0.406685 8.11225 0.576443 8.38565 0.831934 8.58625L2.25331 9.70125C2.24079 9.86683 2.22534 10.0311 2.22534 10.1986C2.22534 10.3682 2.2327 10.5357 2.24595 10.7019L0.83267 11.811C0.576941 12.0114 0.406901 12.2848 0.351476 12.5845C0.296051 12.8842 0.358666 13.1918 0.528668 13.455L2.26582 16.141C2.43576 16.4044 2.70287 16.6071 3.02156 16.7143C3.34026 16.8216 3.69077 16.8268 4.01328 16.729L5.8049 16.1876C6.11355 16.3735 6.43623 16.5401 6.77064 16.6863L7.14089 18.3407C7.20762 18.6388 7.388 18.9069 7.65132 19.0995C7.91464 19.2922 8.24462 19.3974 8.58508 19.3973H11.7944V18.0832H8.58508L8.06246 15.7507C7.3395 15.5109 6.66838 15.1615 6.07872 14.7178L3.54145 15.4839L1.8043 12.7979L3.81012 11.2243C3.67289 10.5448 3.67114 9.84905 3.80497 9.16904L1.8043 7.59936L3.54145 4.91336L6.064 5.67554C6.65787 5.23119 7.33421 4.88297 8.06246 4.6466L8.58508 2.31409H12.0594L12.582 4.6466C13.3049 4.88636 13.9761 5.23579 14.5657 5.67948L17.103 4.91336L18.8402 7.59936L16.7806 9.21044L17.7508 10.1986L19.8118 8.58625C20.0675 8.38582 20.2376 8.1125 20.293 7.81279C20.3484 7.51307 20.2858 7.20547 20.1158 6.94232Z" fill="white" stroke="white" stroke-width="0.5"/>
<path d="M15.471 16.8897L13.5645 15.1879L12.5267 16.1144L15.471 18.7425L20.6236 14.1432L19.5857 13.2168L15.471 16.8897Z" fill="white"/>
</svg>
