<svg width="25" height="25" viewBox="0 0 25 25" fill="none" xmlns="http://www.w3.org/2000/svg">
<path fill-rule="evenodd" clip-rule="evenodd" d="M11.0872 14.6186C11.5917 15.6487 13.1215 15.6866 13.6057 14.6246C13.4734 14.4931 13.3758 14.3537 13.2781 14.2142C13.2619 14.1923 13.2456 14.1684 13.2293 14.1465C12.9954 14.3278 12.7126 14.4433 12.3444 14.4433C11.9456 14.4413 11.6466 14.2939 11.4004 14.0727C11.3862 14.0588 11.372 14.0468 11.3577 14.0329C11.3231 14.1285 11.2784 14.2441 11.2296 14.3497C11.1848 14.4513 11.136 14.5489 11.0872 14.6186ZM23.4987 8.18531V16.5712H24.5199C24.6867 16.5712 24.825 16.7046 24.825 16.868V24.4131C24.825 24.5765 24.6887 24.71 24.5199 24.71H0.303117C0.136301 24.71 0 24.5765 0 24.4131V16.868C0 16.7046 0.136301 16.5712 0.303117 16.5712H1.32436V7.93427C1.22264 7.85856 1.12702 7.77687 1.03548 7.68921C0.541134 7.20506 0.235983 6.53762 0.235983 5.80443V4.7684V4.75446V4.75246C0.235983 4.70066 0.248189 4.64886 0.274636 4.60304L2.4168 0.865365C2.47376 0.765747 2.57954 0.709961 2.68736 0.709961H22.3757C22.4998 0.709961 22.6056 0.779694 22.6564 0.881304L24.9532 4.59308C24.9817 4.63691 24.9959 4.68672 24.998 4.73453C25 4.7445 25 4.75446 25 4.76641V5.80244C25 6.53563 24.6928 7.20307 24.2005 7.68721C23.993 7.88844 23.7591 8.0558 23.4987 8.18531ZM21.1225 16.5712V8.22117C20.8337 8.08768 20.5712 7.90637 20.3495 7.68921C20.1542 7.49794 19.9894 7.27878 19.8592 7.0377C19.7311 7.27878 19.5642 7.49794 19.3689 7.68921C18.8746 8.17335 18.1931 8.47221 17.4445 8.47221C16.6958 8.47221 16.0143 8.17136 15.52 7.68921C15.3247 7.49794 15.1599 7.27878 15.0297 7.0377C14.9015 7.27878 14.7347 7.49794 14.5394 7.68921C14.0451 8.17335 13.3636 8.47221 12.6149 8.47221C11.8663 8.47221 11.1848 8.17136 10.6905 7.68921C10.4952 7.49794 10.3304 7.27878 10.2002 7.0377C10.072 7.27878 9.9052 7.49794 9.7099 7.68921C9.21556 8.17335 8.53405 8.47221 7.78542 8.47221C7.03678 8.47221 6.35528 8.17136 5.86093 7.68921C5.66564 7.49794 5.50085 7.27878 5.37066 7.0377C5.24249 7.27878 5.07568 7.49794 4.88038 7.68921C4.55489 8.00798 4.15005 8.24707 3.6964 8.37259V16.5732H7.76101C7.79966 16.2086 8.01123 15.7882 8.1455 15.6128C8.26756 15.4554 8.4181 15.3399 8.58491 15.2482C9.08739 14.9753 10.3914 14.8836 10.9325 14.513C10.9732 14.4553 11.0159 14.3696 11.0566 14.278C11.1197 14.1385 11.1746 13.9871 11.2112 13.8835C11.0587 13.7081 10.9305 13.5109 10.8064 13.3176L10.3955 12.6781C10.2449 12.4589 10.1676 12.2577 10.1636 12.0943C10.1615 12.0166 10.1737 11.9469 10.2042 11.8851C10.2348 11.8214 10.2816 11.7656 10.3446 11.7237C10.3751 11.7038 10.4077 11.6879 10.4443 11.6739C10.4179 11.3273 10.4077 10.8909 10.424 10.5243C10.4321 10.4367 10.4504 10.351 10.4748 10.2633C10.5806 9.89674 10.843 9.60188 11.1685 9.39865C11.3475 9.28708 11.5449 9.20141 11.7503 9.14562C11.8805 9.10976 11.732 8.82286 11.8663 8.80892C12.5173 8.74317 13.4795 9.2054 13.9352 9.68755C14.1631 9.92862 14.3055 10.2494 14.336 10.6718L14.3095 11.7158C14.4235 11.7496 14.4967 11.8194 14.5252 11.9349C14.5577 12.0624 14.5232 12.2398 14.4133 12.4848C14.4113 12.4888 14.4092 12.4928 14.4072 12.4988L13.9393 13.2539C13.7684 13.5308 13.5935 13.8097 13.3656 14.0289C13.386 14.0568 13.4063 14.0867 13.4266 14.1166C13.5202 14.2501 13.6118 14.3835 13.7318 14.5011C13.7359 14.5051 13.7399 14.5091 13.742 14.513C14.2811 14.8856 15.5912 14.9753 16.0937 15.2502C16.2605 15.3419 16.411 15.4574 16.5331 15.6148C16.6694 15.7902 16.8789 16.2105 16.9176 16.5751H21.1225V16.5712ZM1.06599 4.46357H5.12857L5.87517 1.31763H2.86842L1.06599 4.46357ZM14.9992 1.31763L15.3104 4.46357H19.4564L18.6081 1.31763H14.9992ZM14.6879 4.46357L14.3787 1.31763H10.8471L10.5419 4.46357H14.6879ZM9.92147 4.46357L10.2266 1.31763H6.51192L5.76532 4.46357H9.92147ZM19.2489 1.31763L20.0972 4.46357H24.1476L22.2007 1.31763H19.2489ZM20.1705 5.07124V5.80244C20.1705 6.36827 20.4065 6.88429 20.7889 7.25686C21.1693 7.62944 21.6962 7.86254 22.274 7.86254C22.8517 7.86254 23.3786 7.63143 23.7591 7.25686C24.1395 6.88429 24.3775 6.36827 24.3775 5.80244V5.07124H20.1705ZM15.341 5.07124V5.80244C15.341 6.36827 15.5769 6.88429 15.9594 7.25686C16.3398 7.62944 16.8667 7.86254 17.4445 7.86254C18.0222 7.86254 18.5491 7.63143 18.9295 7.25686C19.31 6.88429 19.548 6.36827 19.548 5.80244V5.07124H15.341ZM10.5135 5.07124V5.80244C10.5135 6.36827 10.7495 6.88429 11.1319 7.25686C11.5123 7.62944 12.0392 7.86254 12.617 7.86254C13.1947 7.86254 13.7216 7.63143 14.102 7.25686C14.4825 6.88429 14.7205 6.36827 14.7205 5.80244V5.07124H10.5135ZM5.68598 5.07124V5.80244C5.68598 6.36827 5.92196 6.88429 6.30442 7.25686C6.68484 7.62944 7.21173 7.86254 7.78949 7.86254C8.36724 7.86254 8.89413 7.63143 9.27455 7.25686C9.65498 6.88429 9.89299 6.36827 9.89299 5.80244V5.07124H5.68598ZM5.06347 5.07124H0.856457V5.80244C0.856457 6.36827 1.09244 6.88429 1.4749 7.25686C1.85532 7.62944 2.38221 7.86254 2.95996 7.86254C3.53772 7.86254 4.06461 7.63143 4.44503 7.25686C4.82545 6.88429 5.06347 6.36827 5.06347 5.80244V5.07124ZM9.82383 16.5712H14.9463L15.0846 15.0609C14.6615 14.9793 14.2139 14.9175 13.744 14.6525C13.4551 15.8977 11.492 16.0751 10.9264 14.6864C10.5053 14.8936 10.0964 15.0131 9.60819 15.0869L9.82383 16.5712ZM1.43828 17.8184H23.3827C23.4803 17.8184 23.5617 17.8981 23.5617 17.9937V23.2914C23.5617 23.387 23.4803 23.4667 23.3827 23.4667H1.43828C1.34063 23.4667 1.25926 23.389 1.25926 23.2914V17.9937C1.26129 17.8961 1.34063 17.8184 1.43828 17.8184ZM10.6844 11.8592C10.5928 11.8632 10.5236 11.8811 10.4768 11.913C10.4504 11.9309 10.4301 11.9529 10.4179 11.9808C10.4036 12.0106 10.3975 12.0465 10.3975 12.0883C10.4016 12.2099 10.4667 12.3713 10.5928 12.5546L10.5948 12.5565L11.0058 13.1961C11.1706 13.4531 11.3435 13.7141 11.5571 13.9054C11.7626 14.0907 12.0128 14.2142 12.3444 14.2162C12.7024 14.2162 12.9648 14.0867 13.1764 13.8914C13.3982 13.6882 13.5711 13.4113 13.744 13.1343L14.2058 12.3892C14.2912 12.1959 14.3238 12.0684 14.3034 11.9927C14.2912 11.9469 14.2404 11.925 14.1549 11.921C14.1366 11.921 14.1183 11.919 14.098 11.921C14.0776 11.921 14.0553 11.923 14.0329 11.925C14.0207 11.927 14.0085 11.925 13.9963 11.923C13.9556 11.925 13.9128 11.923 13.8701 11.917L14.0288 11.2316C12.855 11.4129 11.9762 10.5582 10.7332 11.0603L10.8227 11.8692C10.7759 11.8672 10.7291 11.8652 10.6844 11.8592Z" fill="#2F2F2F"/>
</svg>
